<?xml version="1.0" encoding="UTF-8"?>
<svg id="Layer_1" data-name="Layer 1" xmlns="http://www.w3.org/2000/svg" viewBox="0 0 110.05 232.19">
  <path d="M29.14,217.62c0,7.44-6.51,14.57-14.57,14.57s-14.57-7.13-14.57-14.57c0-8.06,6.51-14.57,14.57-14.57s14.57,6.51,14.57,14.57ZM4.03,210.49c.93-2.17,3.1-5.58,2.79-4.96.31-.62.62-.93,1.24-1.86,0,0,4.34-4.65,4.96-5.27,1.55-1.55-.31.31,1.86-2.79,1.86-1.24,2.48-1.86,3.1-2.48,1.55-1.24,3.1-2.48,4.65-3.41.93-.62,3.1-1.86,4.65-2.48l.62-.62c1.86-1.55,3.41-2.79,5.27-3.72,1.24-.62,2.79-1.24,3.72-1.55,1.24-.62,3.1-1.55,3.72-1.86,2.79-1.86,4.03-2.79,4.03-2.79,2.48-1.55,4.65-3.72,6.82-5.58,1.86-1.55,4.03-3.72,6.82-5.89,2.17-1.55,4.03-2.79,5.27-3.72-.31.31,1.55-1.86,2.79-3.1,1.55-1.55,2.48-2.79,3.72-4.34,1.24-1.55,3.1-4.03,4.03-5.27,1.24-1.86,2.17-2.79,3.1-3.72.93-1.24,1.24-1.86,2.17-3.1.93-.93,2.48-2.79,3.1-3.41.93-1.24,1.24-1.86,1.24-1.86.31-.62.62-1.24,1.24-2.48s.93-1.86.93-1.86c1.24-3.72-.62,4.96-.62.93v-7.13c-.31-1.24-.62-2.17-.93-3.72v-.93c-.62-1.86,5.89,8.06-.31-1.24-4.03-10.85,5.58,4.65,1.55.62-.31-.31-1.24-.62-2.79-1.24v.31c-1.24-.31-2.48-.62-4.03-.93-2.17-.31-6.82-1.24-7.44-1.24-.31-.31-2.79-.62-6.2-1.24-.93-.31-4.96-.93-6.82-1.55,0,0-2.17-.62-3.72-.93-1.24-.31-2.48-.93-4.03-1.55-1.24-.31-4.03-.93-5.27-1.24-.93-.62-1.24-.62-3.41-1.24-11.16-7.44.62,0-2.48-1.24-.93-.31-6.2-3.41-7.13-3.72-1.55-1.24-2.79-2.17-3.72-2.79-.62-.62-4.03-3.72-4.65-4.65-1.24-1.86-2.48-3.72-3.1-5.58-.31-.93-.62-1.86-.93-2.79,0-.93-.62-2.48-1.86-6.2-.31-2.17-.93-4.34-1.86-8.06.62.31-1.55-6.82-1.55-9.61v-26.66c.62-1.86.93-2.79,1.55-4.34v-1.55c.31-1.86,1.24-4.34,1.86-5.89.93-2.17,2.48-4.03,3.72-5.27.93-1.24,1.86-2.17,2.79-3.1.62-.62,1.24-1.24,1.55-1.55.62-.62,1.55-1.55,2.17-2.17.62-.93,1.86-2.79,2.48-3.41,1.24-1.24,2.79-2.48,4.34-3.41,1.86-1.24,2.17-1.55,4.34-3.41,3.41-.93,4.65-1.24,5.89-1.55-.93-.31,3.41-.62,4.65-.93.93-.31,3.41-.93,5.27-1.24,2.79-.62,7.13-.93,7.13-.93h18.29c2.17,0,4.65.62,7.44,1.55l-8.06,23.56c-1.86-.62,1.24-.31.62-.31h-16.12c-2.48.31-4.65.31-4.96.31-.93.31-2.79.93-4.03,1.24-1.86.31-4.03.62-4.03.62h.31c-1.55.62-3.1,1.55-3.1,1.55q-.93.62-.62.31c-8.68,8.68,4.03-4.03-1.24,2.17l-1.55,1.55c-1.55,1.55-2.17,2.17-3.41,3.41-.62.62-.93,1.24-.31.31-5.27,7.13,1.55-4.03-.93.93,0,0,.31-.93.31-1.24-.31,1.86-.62,3.41-1.24,5.27,0,.31-.31,1.24-.31,1.24v22.01c.31,1.55.93,4.34,1.24,6.2.62,2.17,1.24,4.65,1.55,6.51.62,1.86,1.24,3.41,1.55,4.65.62,1.86.93,3.1.62,2.17q-.31-.62,0,0c3.1,4.65-1.24-1.55-.93-1.55.93.62,1.55,1.24,1.86,1.55,1.24.62,2.48,1.24,3.72,1.86.62.31,1.55.62,2.17.93.93.31,2.17.62,3.41,1.24,1.55.31,2.79.62,4.03.93,2.17.93-.31.31,3.1,1.24.93.31,3.41.62,5.27,1.24-1.55-.31,1.24.31,3.72.93,1.86.31,4.65.93,6.2,1.24,1.86.31,3.1.62,3.72.62,1.24.31,3.72.62,5.58.93,3.41.31,6.2,1.24,8.68,2.79,4.65,2.17,9.61,5.58,8.99,7.44,1.55,2.79,3.41,6.2,3.41,6.2.62,1.86.93,2.79.62,1.86.62,1.86.93,3.1,1.24,5.27.31,1.24.62,3.1.93,4.65v9.92c0-.62,0,5.27-.62,7.13-.31.93-1.55,3.72-2.17,4.96,0,0-1.24,2.79-1.86,4.03-.93,1.24-3.72,4.65-4.03,4.96-.62.31-1.55,1.86-3.1,3.72-1.24,1.55,0-.31-1.86,2.48-1.55,1.86-.62.62-1.86,2.48-.62.93-3.1,4.34-5.27,7.13-1.86,2.17-4.03,4.03-5.58,5.58,0,0-3.1,3.72-4.65,4.96-1.55,1.24-4.03,3.1-5.58,4.34-1.55,1.24-3.41,3.1-5.89,5.27-1.86,1.55-3.72,3.1-6.2,4.96-2.79,2.48-5.27,3.72-7.44,5.27-1.55.93-5.58,2.79-5.58,2.79-.93.62-4.03,1.86-4.03,1.86.62-.31.31,0-.62.93-8.37,5.89,4.96-5.89-4.34,3.1-3.41,1.24-2.48.62-3.1.93-.93.62-1.24.93-2.17,1.86l-.93.62c-.93,1.24-1.86,2.17-2.79,3.1-1.24,1.24-1.86,2.17-2.79,3.41h-.31c-1.24,1.86.93-3.1-.31.31-.31.62-.93,2.79-1.24,3.41l-22.32-11.16c-.31.62.31-.31.62-1.24ZM48.05,9.61c2.79.93,4.65,3.41,4.96,5.89,1.24,2.17,1.86,4.65,1.86,7.13,0,8.37-6.82,15.5-15.5,15.5h-1.24c-.31.62-.62,1.24-1.24,1.86,0,.31-.31,1.24-.62,1.86-.31,4.03-3.72,7.13-7.75,7.13-4.34,0-7.75-3.72-7.75-7.75,0-1.24.31-2.48.93-3.72,0-1.55.93-3.1,1.86-4.34.31-1.24.93-2.79,1.86-3.72-.93-1.86-1.55-4.34-1.55-6.82,0-8.68,7.13-15.5,15.5-15.5,3.1,0,6.2.93,8.68,2.48ZM46.5,92.38c0,4.03-3.41,7.75-7.75,7.75s-7.75-3.72-7.75-7.75c0-4.34,3.41-7.75,7.75-7.75s7.75,3.41,7.75,7.75ZM94.55,12.71c0,5.89-3.72,10.85-9.92,12.4-2.48,2.17-4.96,3.1-8.06,3.1-7.44,0-13.02-6.2-13.02-12.71s3.72-10.85,9.92-12.4c2.48-2.17,4.96-3.1,8.06-3.1,7.44,0,13.02,5.58,13.02,12.71ZM110.05,168.95c0,12.71-10.54,23.25-23.25,23.25s-23.25-10.54-23.25-23.25,10.23-23.25,23.25-23.25,23.25,10.54,23.25,23.25ZM96.72,110.98c0,4.03-3.41,7.75-7.75,7.75s-7.75-3.72-7.75-7.75c0-4.34,3.41-7.75,7.75-7.75s7.75,3.41,7.75,7.75ZM105.4,131.75c0,4.34-3.41,7.75-7.75,7.75s-7.75-3.41-7.75-7.75,3.41-7.75,7.75-7.75,7.75,3.41,7.75,7.75Z"/>
</svg>