<?xml version="1.0" encoding="UTF-8"?>
<svg id="Layer_1" data-name="Layer 1" xmlns="http://www.w3.org/2000/svg" viewBox="0 0 103.23 219.79">
  <path d="M15.5,212.04c0,4.03-3.41,7.75-7.75,7.75s-7.75-3.72-7.75-7.75c0-4.34,3.41-7.75,7.75-7.75s7.75,3.41,7.75,7.75ZM41.23,4.03c2.79.93,4.65,3.41,4.96,5.89,1.24,2.17,1.86,4.65,1.86,7.13,0,8.37-6.82,15.5-15.5,15.5h-1.24c-.31.62-.62,1.24-1.24,1.86,0,.31-.31,1.24-.62,1.86-.31,4.03-3.72,7.13-7.75,7.13-4.34,0-7.75-3.72-7.75-7.75,0-1.24.31-2.48.93-3.72,0-1.55.93-3.1,1.86-4.34.31-1.24.93-2.79,1.86-3.72-.93-1.86-1.55-4.34-1.55-6.82,0-8.68,7.13-15.5,15.5-15.5,3.1,0,6.2.93,8.68,2.48ZM39.68,86.8c0,4.03-3.41,7.75-7.75,7.75s-7.75-3.72-7.75-7.75c0-4.34,3.41-7.75,7.75-7.75s7.75,3.41,7.75,7.75ZM103.23,163.37c0,12.71-10.54,23.25-23.25,23.25s-23.25-10.54-23.25-23.25,10.23-23.25,23.25-23.25,23.25,10.54,23.25,23.25ZM81.53,7.75c0,3.41-2.17,6.51-5.89,7.44-1.55,1.24-3.1,1.86-4.96,1.86-4.34,0-7.75-3.72-7.75-7.75,0-3.72,2.17-6.51,5.89-7.44,1.55-1.24,3.1-1.86,4.96-1.86,4.34,0,7.75,3.41,7.75,7.75ZM89.9,105.4c0,4.03-3.41,7.75-7.75,7.75s-7.75-3.72-7.75-7.75c0-4.34,3.41-7.75,7.75-7.75s7.75,3.41,7.75,7.75ZM98.58,126.17c0,4.34-3.41,7.75-7.75,7.75s-7.75-3.41-7.75-7.75,3.41-7.75,7.75-7.75,7.75,3.41,7.75,7.75Z"/>
</svg>