<?xml version="1.0" encoding="UTF-8"?>
<svg id="Layer_1" data-name="Layer 1" xmlns="http://www.w3.org/2000/svg" viewBox="0 0 104.47 221.03">
  <path d="M16.74,212.66c0,4.34-3.72,8.37-8.37,8.37s-8.37-4.03-8.37-8.37c0-4.65,3.72-8.37,8.37-8.37s8.37,3.72,8.37,8.37ZM1.24,212.66c0,3.72,3.1,7.13,7.13,7.13s7.13-3.41,7.13-7.13c0-4.03-3.1-7.13-7.13-7.13s-7.13,3.1-7.13,7.13ZM14.88,197.47c9.92-8.37,22.32-12.4,31.62-20.46,14.57-13.33,41.54-32.24,38.75-53.94-.31-19.84-22.01-12.09-35.03-18.29-5.89-.31-8.99-4.65-12.71-6.2-9.92.31-17.67-9.61-19.53-18.6C3.72,32.24,24.18-4.65,77.81,5.58c6.2,2.79,3.1,9.61-2.48,10.23l-24.49.62c-28.21,5.27-24.8,39.68-18.91,61.07,4.65,18.29,28.21,16.74,43.4,21.08,17.67,0,26.35,15.19,24.8,31.31-2.48,18.29-21.7,35.65-35.03,47.74-11.78,12.71-28.21,17.98-41.23,28.52-5.89,3.72-7.75,13.64-15.81,12.71-13.02-4.34,2.48-16.74,6.82-21.39ZM23.25,204.91c13.02-10.54,29.45-15.81,41.23-27.9,13.33-12.09,31.93-28.83,34.41-47.12,1.55-16.12-6.82-30.07-23.56-30.07-15.19-4.34-39.99-3.41-44.64-21.7-5.89-21.39-8.68-57.66,20.15-62.93l24.49-.62c4.96-.62,6.82-5.58,1.86-7.75C24.18-3.41,4.96,32.24,19.22,79.98c1.86,8.99,8.37,17.67,18.29,17.36,4.96,2.17,7.44,5.89,12.71,6.2,13.02,6.2,35.96-.93,36.27,19.53,2.79,21.7-24.18,41.23-39.37,54.56-9.92,8.68-22.32,12.71-31.62,20.46-4.34,4.65-18.6,15.81-7.44,19.53,7.44.93,9.3-8.99,15.19-12.71ZM42.16,4.03c2.79.93,4.96,3.41,5.27,6.2,1.24,2.17,1.86,4.96,1.86,7.44,0,8.68-7.13,16.12-16.12,16.12h-.93c-.31.62-.62,1.24-.93,1.55,0,.31-.31,1.24-.62,1.86-.31,4.34-4.03,7.44-8.37,7.44-4.65,0-8.37-4.03-8.37-8.37,0-1.24.31-2.48.93-3.72,0-1.55.93-3.41,1.86-4.65.31-1.24.93-2.48,1.86-3.41-.93-2.17-1.55-4.34-1.55-6.82,0-8.99,7.44-16.12,16.12-16.12,3.1,0,6.51.93,8.99,2.48ZM18.29,17.67c0,2.48.93,5.27,1.86,6.82-1.24.93-1.86,2.79-2.17,4.03-.93,1.24-1.86,2.79-1.86,4.03-.62,1.24-.93,2.48-.93,3.72,0,3.72,3.1,7.13,7.13,7.13,3.72,0,6.82-3.1,7.13-6.82.31-.62.62-1.86.62-1.86.62-.62,1.24-1.55,1.55-2.17h1.55c8.37,0,14.88-6.82,14.88-14.88,0-2.48-.62-4.65-1.86-6.82-.31-2.17-1.86-4.65-4.65-5.58-2.48-1.55-5.27-2.48-8.37-2.48-8.06,0-14.88,6.51-14.88,14.88ZM40.92,87.42c0,4.34-3.72,8.37-8.37,8.37s-8.37-4.03-8.37-8.37c0-4.65,3.72-8.37,8.37-8.37s8.37,3.72,8.37,8.37ZM25.42,87.42c0,3.72,3.1,7.13,7.13,7.13s7.13-3.41,7.13-7.13c0-4.03-3.1-7.13-7.13-7.13s-7.13,3.1-7.13,7.13ZM104.47,163.99c0,13.02-10.85,23.87-23.87,23.87s-23.87-10.85-23.87-23.87,10.54-23.87,23.87-23.87,23.87,10.85,23.87,23.87ZM57.97,163.99c0,12.4,9.92,22.63,22.63,22.63s22.63-10.23,22.63-22.63-10.23-22.63-22.63-22.63-22.63,10.23-22.63,22.63ZM82.77,8.37c0,3.72-2.48,7.13-6.2,8.06-1.55,1.24-3.41,1.86-5.27,1.86-4.65,0-8.37-4.03-8.37-8.37,0-4.03,2.48-7.13,6.2-8.06,1.55-1.24,3.41-1.86,5.27-1.86,4.65,0,8.37,3.72,8.37,8.37ZM69.75,3.1c-3.72.93-5.58,3.41-5.58,6.82,0,3.72,3.1,7.13,7.13,7.13,1.86,0,3.1-.62,4.65-1.86,3.72-.93,5.58-3.72,5.58-6.82,0-4.03-3.1-7.13-7.13-7.13-1.86,0-3.1.62-4.65,1.86ZM91.14,106.02c0,4.34-3.72,8.37-8.37,8.37s-8.37-4.03-8.37-8.37c0-4.65,3.72-8.37,8.37-8.37s8.37,3.72,8.37,8.37ZM75.64,106.02c0,3.72,3.1,7.13,7.13,7.13s7.13-3.41,7.13-7.13c0-4.03-3.1-7.13-7.13-7.13s-7.13,3.1-7.13,7.13ZM99.82,126.79c0,4.65-3.72,8.37-8.37,8.37s-8.37-3.72-8.37-8.37,3.72-8.37,8.37-8.37,8.37,3.72,8.37,8.37ZM84.32,126.79c0,4.03,3.1,7.13,7.13,7.13s7.13-3.1,7.13-7.13-3.1-7.13-7.13-7.13-7.13,3.1-7.13,7.13Z"/>
</svg>