<?xml version="1.0" encoding="UTF-8"?>
<svg id="Layer_1" data-name="Layer 1" xmlns="http://www.w3.org/2000/svg" viewBox="0 0 103.23 219.79">
  <path d="M15.5,212.04c0,4.03-3.41,7.75-7.75,7.75s-7.75-3.72-7.75-7.75c0-4.34,3.41-7.75,7.75-7.75s7.75,3.41,7.75,7.75ZM6.2,210.8s.31-1.55.62-2.17c.31-.93,1.24-1.86,1.86-2.79.62-.93.62-1.55,1.86-2.48.93-1.24,2.48-2.48,3.1-3.1.93-.93,1.55-1.86,2.17-2.79.93-.31,1.24-1.24,2.48-2.17.93-.93,2.48-1.86,3.41-2.48.93-.62,2.17-1.24,3.1-1.55.93-.93,2.17-1.55,2.79-1.86.93-.93,2.17-1.86,3.41-2.48s3.1-1.24,3.72-1.55c1.55-.93,3.1-1.55,4.65-2.48,1.86-1.24,4.03-2.48,5.89-4.34,2.17-1.55,4.34-3.41,6.2-4.96s4.03-3.72,6.2-5.58c2.48-1.55,4.03-2.79,5.58-4.03,1.55-1.24,2.48-2.48,3.72-3.72,1.55-1.55,3.1-3.41,4.34-4.96,1.55-1.86,3.72-4.65,4.65-5.89,1.24-1.86,1.86-2.79,2.48-3.41.62-.93,1.55-2.17,2.17-2.79.93-1.24,2.48-3.1,3.1-3.72.93-1.24,2.17-2.17,2.48-2.79.62-.93.93-2.17,1.55-3.41.62-1.24.93-2.17,1.24-3.1.31-.62,0-1.24,0-2.48v-8.37c-.31-1.55-.62-2.48-.93-3.72,0-.93-.31-2.17-.62-3.1-.31-1.24-.62-2.17-.93-2.48-.31-1.55,0-1.86-.93-2.48-.93-.93-2.79-2.17-4.34-2.79-1.24-.93-1.86-.93-3.1-.93-1.24-.62-3.41-.62-5.27-.93-1.55,0-3.72-.62-5.58-.93-1.86-.62-4.34-.93-6.2-1.24-1.86-.62-4.03-.62-5.89-1.24-1.55-.62-3.1-.62-4.65-1.24-1.24-.31-2.48-.62-3.72-1.24-1.24-.31-2.79-.62-4.34-.93-.62-.62-1.55-.93-3.1-1.24q-.62-.62-2.79-1.55c-1.55-.62-4.34-2.17-5.58-2.79-1.55-1.24-1.86-1.24-2.79-1.86-.31-.62-1.86-1.55-2.48-2.48-.62-.93-1.55-2.17-1.86-3.1-.31-1.24-.31-1.86-.93-3.1-.31-1.24-.93-3.1-1.55-4.96-.31-2.17-.93-4.65-1.55-7.13-.31-2.48-1.24-4.96-1.55-8.06v-25.11c.31-.93.62-2.17.93-3.1.31-1.24.62-2.48.62-3.1.31-1.24.62-2.17.93-2.79.31-.93.93-1.86,1.86-2.79.93-1.24,1.86-1.86,2.48-2.48.93-.93,1.55-1.86,2.17-2.48.62-.93,1.86-1.86,2.17-2.17.62-.93,1.24-1.86,1.86-2.48.62-.62,1.86-1.55,2.79-2.17.93-.62,3.41-1.86,3.72-2.48,1.24-.31,2.79-1.24,3.72-1.24,1.24-.31,2.48-.31,4.03-.62,1.24-.31,2.79-.93,4.65-1.24,1.86-.31,4.34-.31,6.51-.62h13.02c2.48.31,5.89.31,5.89,2.17.62.62-2.79,2.48-4.03,3.1l-1.86-3.1.31-.31c4.96,3.72,1.86,2.17-.31,1.86h-13.02c-2.17.31-4.03.31-5.89.62-1.86.31-3.41.93-4.65,1.24-1.55.31-3.41.31-4.34.62,0,0-.93.31-2.17.62-.93.93-2.79,1.86-3.72,2.48s-1.86,1.24-2.17,1.55c-.31.31-.62,1.55-1.24,2.48-.62.62-1.86,1.55-2.17,2.17-1.24,1.24-1.86,1.55-2.79,2.48-.62.62-1.55,1.86-1.86,2.48-.62.62-.93.62-1.24,1.55-.31.62-.62.93-.93,2.17,0,.93-.31,2.48-.62,3.72-.31.93-.62,1.55-.93,2.48v24.49c.31,2.48,1.24,4.96,1.55,7.44.62,2.48,1.24,4.96,1.55,7.13.62,1.86,1.24,3.1,1.55,4.34.62,1.24.62,2.17.93,3.1.31.93.62,1.55,1.24,2.48,0,0,1.24.62,1.86,1.24.93.62.93.93,2.17,1.86,1.24.62,4.03,2.17,4.96,2.79.93.31,2.48.62,3.1.93,1.24.31,2.17.62,3.1,1.24,1.24.31,2.79.62,4.03.93,1.24.62,2.48.93,3.72,1.24,1.55.62,3.1.62,4.65,1.24,1.86.62,3.41.62,5.27,1.24,1.86.31,4.34.62,6.2,1.24,1.86.31,4.03.93,4.96.93,1.86.31,4.03.31,5.89.93,1.55,0,3.1.62,4.34,1.55,1.55.62,4.03,1.86,4.96,2.79,1.24.93,1.86,2.79,2.17,4.03.31.62.62,1.86.93,2.79.31.93.62,2.79.62,3.72.31,1.24.62,2.17.93,3.72v8.99c0,.93.31,2.79,0,3.72-.31.93-1.24,2.48-1.86,3.72-.31.62-.93,2.48-1.55,3.41-.62,1.24-1.55,2.17-2.48,3.41-1.24,1.24-2.17,2.48-3.1,3.72-.93.93-1.55,1.86-2.17,2.79-.93.93-1.24.93-2.48,2.79-.93,1.24-3.1,4.65-4.65,6.51-1.86,2.17-3.41,3.41-4.96,4.96-.93.93-2.17,3.1-3.72,4.34s-3.72,2.48-5.58,4.03c-1.55,1.24-3.72,3.41-6.2,5.58-1.86,1.55-4.03,3.41-6.2,4.96-1.86,1.86-4.65,3.1-6.51,4.34-1.55.93-3.1,1.55-4.65,2.48-1.24.62-3.1,1.24-3.72,1.55-1.24.62-1.55,1.24-2.79,2.48-1.55.93-2.79.93-3.41,1.86-.93.31-2.17.93-3.1,1.55-.93.62-1.86,1.55-2.79,2.48-.62.31-1.55,1.24-2.48,1.86-.62.93-1.55,1.86-2.17,2.48-1.24,1.24-2.79,2.79-2.79,3.1-.93.31-.62.62-1.55,1.86-.62.93-.93,1.24-1.24,2.17-.31.62-.93,2.17-1.24,2.79l-3.1-1.86ZM41.23,4.03c2.79.93,4.65,3.41,4.96,5.89,1.24,2.17,1.86,4.65,1.86,7.13,0,8.37-6.82,15.5-15.5,15.5h-1.24c-.31.62-.62,1.24-1.24,1.86,0,.31-.31,1.24-.62,1.86-.31,4.03-3.72,7.13-7.75,7.13-4.34,0-7.75-3.72-7.75-7.75,0-1.24.31-2.48.93-3.72,0-1.55.93-3.1,1.86-4.34.31-1.24.93-2.79,1.86-3.72-.93-1.86-1.55-4.34-1.55-6.82,0-8.68,7.13-15.5,15.5-15.5,3.1,0,6.2.93,8.68,2.48ZM39.68,86.8c0,4.03-3.41,7.75-7.75,7.75s-7.75-3.72-7.75-7.75c0-4.34,3.41-7.75,7.75-7.75s7.75,3.41,7.75,7.75ZM103.23,163.37c0,12.71-10.54,23.25-23.25,23.25s-23.25-10.54-23.25-23.25,10.23-23.25,23.25-23.25,23.25,10.54,23.25,23.25ZM81.53,7.75c0,3.41-2.17,6.51-5.89,7.44-1.55,1.24-3.1,1.86-4.96,1.86-4.34,0-7.75-3.72-7.75-7.75,0-3.72,2.17-6.51,5.89-7.44,1.55-1.24,3.1-1.86,4.96-1.86,4.34,0,7.75,3.41,7.75,7.75ZM89.9,105.4c0,4.03-3.41,7.75-7.75,7.75s-7.75-3.72-7.75-7.75c0-4.34,3.41-7.75,7.75-7.75s7.75,3.41,7.75,7.75ZM98.58,126.17c0,4.34-3.41,7.75-7.75,7.75s-7.75-3.41-7.75-7.75,3.41-7.75,7.75-7.75,7.75,3.41,7.75,7.75Z"/>
</svg>